<?xml version="1.0" encoding="utf-8"?>
<svg xmlns="http://www.w3.org/2000/svg" viewBox="0 0 30 30" width="480" height="480">
  <path d="M6 3C4.3550302 3 3 4.3550302 3 6L3 8 A 1.0001 1.0001 0 1 0 5 8L5 6C5 5.4349698 5.4349698 5 6 5L8 5 A 1.0001 1.0001 0 1 0 8 3L6 3 z M 22 3 A 1.0001 1.0001 0 1 0 22 5L24 5C24.56503 5 25 5.4349698 25 6L25 8 A 1.0001 1.0001 0 1 0 27 8L27 6C27 4.3550302 25.64497 3 24 3L22 3 z M 15 7C12.981 7 11.34375 8.2155781 11.34375 10.392578C11.34375 11.312578 11.859375 12.029297 11.859375 12.029297C11.859375 12.029297 11.625 12.145719 11.625 12.636719C11.625 13.591719 12.238281 13.820313 12.238281 13.820312C12.323281 14.576313 13.5 15.683594 13.5 15.683594L13.5 16.947266C12.868 18.842266 8.3320312 17.594 8.3320312 22L21.666016 22C21.667016 17.579 17.132 18.842266 16.5 16.947266L16.5 15.683594C16.5 15.683594 17.676719 14.576313 17.761719 13.820312C17.761719 13.820312 18.375 13.396719 18.375 12.636719C18.375 12.109719 18.140625 12.029297 18.140625 12.029297C18.140625 12.029297 18.5625 11.229844 18.5625 10.464844C18.5625 8.9308437 17.792 7.75 16.5 7.75C16.5 7.75 15.951 7 15 7 z M 3.984375 20.986328 A 1.0001 1.0001 0 0 0 3 22L3 24C3 25.64497 4.3550302 27 6 27L8 27 A 1.0001 1.0001 0 1 0 8 25L6 25C5.4349698 25 5 24.56503 5 24L5 22 A 1.0001 1.0001 0 0 0 3.984375 20.986328 z M 25.984375 20.986328 A 1.0001 1.0001 0 0 0 25 22L25 24C25 24.56503 24.56503 25 24 25L22 25 A 1.0001 1.0001 0 1 0 22 27L24 27C25.64497 27 27 25.64497 27 24L27 22 A 1.0001 1.0001 0 0 0 25.984375 20.986328 z" fill="#1C1C1C" />
</svg>