<?xml version="1.0" encoding="utf-8"?>
<svg xmlns="http://www.w3.org/2000/svg" viewBox="0 0 26 26" width="50" height="50">
  <path d="M3.90625 1.96875C3.863281 1.976563 3.820313 1.988281 3.78125 2C3.40625 2.066406 3.105469 2.339844 3 2.703125C2.894531 3.070313 3.003906 3.460938 3.28125 3.71875L17.9375 18.375C17.925781 18.382813 17.917969 18.398438 17.90625 18.40625L18.8125 19.3125C18.824219 19.304688 18.832031 19.289063 18.84375 19.28125L23.28125 23.71875C23.679688 24.117188 24.320313 24.117188 24.71875 23.71875C25.117188 23.320313 25.117188 22.679688 24.71875 22.28125L20.34375 17.90625C21.238281 16.914063 21.945313 15.75 22.40625 14.5C22.507813 14.699219 22.585938 14.804688 22.6875 14.90625C23.1875 15.707031 24.292969 15.90625 25.09375 15.40625C25.792969 14.605469 26 13.613281 25.5 12.8125C22.699219 8.613281 18 6.1875 13 6.1875C11.664063 6.1875 10.386719 6.394531 9.15625 6.71875L4.71875 2.28125C4.511719 2.058594 4.210938 1.945313 3.90625 1.96875 Z M 5.1875 8.3125C3.289063 9.414063 1.699219 11.011719 0.5 12.8125C0 13.613281 0.199219 14.585938 1 15.1875C1.300781 15.386719 1.601563 15.5 2 15.5C2.5 15.5 3.105469 15.210938 3.40625 14.8125C3.507813 14.613281 3.585938 14.511719 3.6875 14.3125C4.988281 18.210938 8.699219 21 13 21C14.398438 21 15.800781 20.6875 17 20.1875L16 19.09375C15.101563 19.394531 14.101563 19.59375 13 19.59375C9 19.59375 5.59375 16.800781 4.59375 13C5.492188 12.101563 6.488281 11.289063 7.6875 10.6875 Z M 17 10.40625C18.699219 11.007813 20.207031 12.011719 21.40625 13.3125C21.074219 14.710938 20.363281 15.957031 19.4375 17L17.46875 15.03125C17.742188 14.445313 17.90625 13.792969 17.90625 13.09375C17.90625 12.09375 17.601563 11.105469 17 10.40625 Z M 8.40625 11.59375C8.304688 11.992188 8.1875 12.5 8.1875 13C8.1875 15.699219 10.300781 17.8125 13 17.8125C13.5 17.8125 14.007813 17.695313 14.40625 17.59375Z" fill="#FFFFFF" />
</svg>